<svg width="229.000000" height="150.000000" viewBox="0 0 229 150" fill="none" xmlns="http://www.w3.org/2000/svg" xmlns:xlink="http://www.w3.org/1999/xlink">
	<desc>
			Created with Pixso.
	</desc>
	<defs/>
	<path id="Enchantica" d="M69.62 72.2L69.62 73L74.1 73L74.1 71.94Q73.65 71.96 73.18 71.99Q72.72 72.01 72.24 72.03Q72.41 71.63 72.53 71.3Q72.67 70.96 72.83 70.38L73.68 67.81L79.92 67.67L80.76 69.92Q80.93 70.35 81 70.89Q81.04 71.24 80.93 71.53Q80.87 71.67 80.78 71.8Q80.49 72.18 79.58 72.2L79.58 73L85.07 73L85.07 71.94Q84.67 71.96 84.26 71.99Q83.85 72.01 83.44 72.03Q83.49 71.48 83.25 70.69Q83.01 69.9 82.82 69.4L77.47 55.74L76.89 55.74L71.95 69.2Q71.61 70.09 71.36 70.76Q71.1 71.44 70.72 71.82Q70.7 71.85 70.67 71.87Q70.29 72.2 69.62 72.2ZM142.65 72.2L142.65 73L147.14 73L147.14 71.94Q146.69 71.96 146.22 71.99Q145.75 72.01 145.27 72.03Q145.44 71.63 145.57 71.3Q145.7 70.96 145.87 70.38L146.71 67.81L152.95 67.67L153.79 69.92Q153.96 70.35 154.03 70.89Q154.08 71.24 153.96 71.53Q153.91 71.67 153.81 71.8Q153.52 72.18 152.61 72.2L152.61 73L158.11 73L158.11 71.94Q157.7 71.96 157.29 71.99Q156.88 72.01 156.48 72.03Q156.52 71.48 156.28 70.69Q156.04 69.9 155.85 69.4L150.5 55.74L149.93 55.74L144.98 69.2Q144.64 70.09 144.39 70.76Q144.14 71.44 143.75 71.82Q143.73 71.85 143.7 71.87Q143.33 72.2 142.65 72.2ZM47.51 58.27Q48.64 59.49 48.86 61.55L49.72 61.55L49.72 55.98L48.43 55.98L48.55 57.27Q47.44 56.53 46.24 56.17Q45.04 55.81 43.7 55.81Q41.61 55.81 40.04 56.58Q38.84 57.16 37.96 58.05Q37.68 58.33 37.44 58.65Q37.1 59.06 36.83 59.51Q36.24 60.46 35.88 61.55Q35.67 62.23 35.54 62.92Q35.37 63.87 35.37 64.86Q35.37 66.66 35.95 68.21Q36.4 69.37 37.12 70.31Q37.36 70.63 37.64 70.92Q38.02 71.33 38.45 71.67Q39.26 72.31 40.23 72.73Q41.73 73.38 43.53 73.38Q44.52 73.38 45.7 73.1Q46.89 72.83 48.09 72.06Q49.29 71.29 50.32 69.88L49.7 69.37Q49.26 69.98 48.71 70.46Q48.05 71.04 47.23 71.42Q45.94 72.03 44.61 72.12Q44.38 72.13 44.16 72.13Q43.18 72.13 42.29 71.84Q41.57 71.6 40.91 71.17Q40.72 71.04 40.53 70.9Q39.34 69.98 38.59 68.48Q37.72 66.75 37.72 64.5Q37.72 62.72 38.2 61.31Q38.68 59.89 39.52 58.89Q40.21 58.06 41.08 57.55Q41.27 57.44 41.47 57.34Q41.92 57.12 42.38 56.99Q43.1 56.79 43.86 56.79Q45.42 56.79 46.56 57.49Q46.95 57.72 47.29 58.04Q47.4 58.15 47.51 58.27ZM139.5 58.27Q140.63 59.49 140.85 61.55L141.72 61.55L141.72 55.98L140.42 55.98L140.54 57.27Q139.44 56.53 138.24 56.17Q137.03 55.81 135.69 55.81Q133.6 55.81 132.03 56.58Q130.84 57.16 129.95 58.05Q129.68 58.33 129.43 58.65Q129.1 59.06 128.82 59.51Q128.23 60.46 127.88 61.55Q127.66 62.23 127.53 62.92Q127.36 63.87 127.36 64.86Q127.36 66.66 127.95 68.21Q128.39 69.37 129.11 70.31Q129.36 70.63 129.63 70.92Q130.01 71.33 130.45 71.67Q131.25 72.31 132.22 72.73Q133.72 73.38 135.52 73.38Q136.51 73.38 137.69 73.1Q138.88 72.83 140.08 72.06Q141.28 71.29 142.31 69.88L141.69 69.37Q141.26 69.98 140.71 70.46Q140.05 71.04 139.22 71.42Q137.93 72.03 136.6 72.12Q136.38 72.13 136.15 72.13Q135.17 72.13 134.28 71.84Q133.56 71.6 132.9 71.17Q132.71 71.04 132.52 70.9Q131.33 69.98 130.58 68.48Q129.72 66.75 129.72 64.5Q129.72 62.72 130.2 61.31Q130.68 59.89 131.52 58.89Q132.2 58.06 133.07 57.55Q133.26 57.44 133.47 57.34Q133.91 57.12 134.37 56.99Q135.09 56.79 135.86 56.79Q137.42 56.79 138.55 57.49Q138.94 57.72 139.28 58.04Q139.39 58.15 139.5 58.27ZM10.55 65.27Q10.84 65.72 10.84 66.78L11.64 66.78L11.64 61.74L10.58 61.74L10.75 63.8L6.23 63.78L6.23 59.94Q6.23 58.96 6.32 58.35Q6.4 57.79 6.71 57.48Q6.75 57.45 6.78 57.42Q7.17 57.1 8.06 57.08L10.12 57.03Q11.03 57.01 11.76 57.26Q11.99 57.34 12.18 57.46Q12.63 57.74 12.93 58.25Q13.36 58.98 13.36 60.4L14.16 60.4L14.03 56.2L2.49 56.2L2.49 57.25Q2.92 57.23 3.35 57.2L4.22 57.16Q4.19 57.51 4.17 57.96Q4.15 58.41 4.15 58.89L4.15 69.25Q4.15 70.09 4.11 70.75Q4.08 71.41 3.74 71.79Q3.4 72.16 2.49 72.2L2.49 73L14.88 73L15.02 68.31L14.2 68.31Q14.2 69.73 13.77 70.55Q13.46 71.13 12.99 71.46Q12.79 71.59 12.57 71.69Q11.81 72.01 10.75 72.03L6.16 72.1Q6.21 71.79 6.22 71.34Q6.23 70.89 6.23 70.24L6.23 64.74L7.99 64.67Q9.02 64.62 9.64 64.72Q10.09 64.78 10.37 65.04Q10.47 65.14 10.55 65.27ZM20.97 60.51L30.55 73.38L31.7 73.38L31.75 59.94Q31.75 59.07 31.77 58.43Q31.8 57.78 32.13 57.4Q32.13 57.4 32.13 57.4Q32.46 57.01 33.35 56.99L33.35 56.2L28.94 56.2L28.94 57.25L29.8 57.2Q30.24 57.18 30.67 57.16Q30.64 57.51 30.62 57.96Q30.6 58.41 30.6 58.89L30.57 69.88L30.55 69.88Q30.24 69.47 29.93 69.06Q29.63 68.65 29.32 68.24L20.32 56.2L17.46 56.2L17.46 57.25Q17.87 57.23 18.28 57.2Q18.69 57.18 19.08 57.16L19.08 58.76L19.05 70.31Q19.05 70.67 18.95 71.11Q18.92 71.29 18.84 71.45Q18.73 71.68 18.53 71.88Q18.21 72.2 17.46 72.2L17.46 73L21.86 73L21.86 71.94L20.99 71.99Q20.56 72.01 20.13 72.03Q20.18 71.46 20.18 70.86L20.18 69.66L20.11 59.39L20.13 59.39Q20.35 59.68 20.55 59.95Q20.76 60.23 20.97 60.51ZM52.36 72.2L52.36 73L57.76 73L57.76 71.94L56.9 71.99Q56.47 72.01 56.04 72.03Q56.08 71.72 56.09 71.25Q56.11 70.79 56.11 70.14L56.11 64.98L64.7 64.89L64.7 69.25Q64.7 70.09 64.66 70.75Q64.62 71.41 64.29 71.79Q63.96 72.16 63.04 72.2L63.04 73L68.45 73L68.45 71.94L67.58 71.99Q67.14 72.01 66.72 72.03Q66.76 71.72 66.78 71.25Q66.79 70.79 66.79 70.14L66.79 59.94Q66.79 59.07 66.82 58.43Q66.86 57.8 67.18 57.42Q67.19 57.41 67.2 57.4Q67.55 57.01 68.45 56.99L68.45 56.2L63.04 56.2L63.04 57.25Q63.48 57.23 63.9 57.2L64.77 57.16Q64.75 57.51 64.72 57.96Q64.7 58.41 64.7 58.89L64.7 63.92L56.11 63.92L56.11 59.94Q56.11 59.07 56.14 58.43Q56.18 57.79 56.52 57.41Q56.52 57.4 56.53 57.4Q56.87 57.01 57.76 56.99L57.76 56.2L52.36 56.2L52.36 57.25Q52.79 57.23 53.22 57.2L54.09 57.16Q54.07 57.51 54.04 57.96Q54.02 58.41 54.02 58.89L54.02 69.25Q54.02 70.09 53.98 70.75Q53.95 71.41 53.61 71.79Q53.28 72.16 52.36 72.2ZM89.66 60.51L99.24 73.38L100.39 73.38L100.44 59.94Q100.44 59.07 100.46 58.43Q100.48 57.78 100.81 57.4Q100.82 57.4 100.82 57.4Q101.15 57.01 102.04 56.99L102.04 56.2L97.62 56.2L97.62 57.25L98.49 57.2Q98.93 57.18 99.35 57.16Q99.33 57.51 99.31 57.96Q99.28 58.41 99.28 58.89L99.26 69.88L99.24 69.88Q98.93 69.47 98.62 69.06Q98.32 68.65 98.01 68.24L89.01 56.2L86.15 56.2L86.15 57.25Q86.56 57.23 86.97 57.2Q87.38 57.18 87.76 57.16L87.76 58.76L87.74 70.31Q87.74 70.67 87.64 71.11Q87.6 71.29 87.53 71.45Q87.42 71.68 87.22 71.88Q86.9 72.2 86.15 72.2L86.15 73L90.55 73L90.55 71.94L89.68 71.99Q89.25 72.01 88.82 72.03Q88.87 71.46 88.87 70.86L88.87 69.66L88.79 59.39L88.82 59.39Q89.04 59.68 89.24 59.95Q89.45 60.23 89.66 60.51ZM116.68 58.91Q116.94 59.84 116.97 61.26L117.88 61.26L117.74 56.2L103.75 56.2L103.6 61.26L104.49 61.26Q104.49 59.13 105.11 58.12Q105.28 57.85 105.5 57.66Q106.14 57.1 107.25 57.1L109.73 57.08L109.7 69.25Q109.7 70.07 109.66 70.73Q109.63 71.39 109.3 71.78Q108.98 72.16 108.07 72.2L108.07 73L113.71 73L113.71 71.94Q113.21 71.96 112.71 71.99Q112.22 72.01 111.72 72.03Q111.76 71.72 111.78 71.25Q111.79 70.79 111.79 70.14L111.81 57.06L113.85 57.06Q115.1 57.03 115.76 57.5Q115.83 57.56 115.9 57.62Q116.45 58.08 116.68 58.91ZM123.92 57.4Q124.27 57.01 125.16 56.99L125.16 56.2L119.75 56.2L119.75 57.25Q120.19 57.23 120.62 57.2L121.48 57.16Q121.46 57.51 121.44 57.96Q121.41 58.41 121.41 58.89L121.41 69.25Q121.41 70.09 121.38 70.75Q121.34 71.41 121 71.79Q120.67 72.16 119.75 72.2L119.75 73L125.16 73L125.16 71.94L124.29 71.99Q123.86 72.01 123.43 72.03Q123.47 71.72 123.49 71.25Q123.5 70.79 123.5 70.14L123.5 59.94Q123.5 59.07 123.53 58.43Q123.57 57.79 123.91 57.41Q123.91 57.4 123.92 57.4ZM79.58 66.78L74.03 66.78L75.74 61.96Q76 61.26 76.26 60.59Q76.51 59.92 76.75 59.24L76.79 59.24Q77.06 59.99 77.33 60.72Q77.61 61.45 77.87 62.2L79.58 66.78ZM152.61 66.78L147.07 66.78L148.77 61.96Q149.03 61.26 149.29 60.59Q149.54 59.92 149.78 59.24L149.83 59.24Q150.09 59.99 150.37 60.72Q150.64 61.45 150.9 62.2L152.61 66.78Z" fill="#FDFAF0" fill-opacity="1.000000" fill-rule="evenodd"/>
	<path id="Vector 1" d="M36.65 87.37L31 87.68C29.61 87.76 17.72 89.39 19.11 86.98C20.34 85.68 26.28 84.39 27.98 85.06M27.98 85.06C29.37 85.12 30.81 86.37 31 87.68M36.04 76.97L31.61 92.18L31 87.68M25.56 92.18C25.56 92.18 27.03 87.84 27.98 85.06C28.69 82.13 29.79 77.55 29.79 77.55" stroke="#FDFAF0" stroke-opacity="1.000000" stroke-width="1.000000"/>
	<path id="Vector 2" d="M36.94 92.18C37.26 92.78 37.74 93.16 38.44 93.14C39.31 93.12 40.14 92.94 39.96 91.6C39.85 90.69 39.5 90.05 38.96 89.79C38.7 89.67 38.4 89.62 38.06 89.68C36.96 89.84 36.43 91.23 36.94 92.18ZM38.96 89.79L39.96 91.6" stroke="#FDFAF0" stroke-opacity="1.000000" stroke-width="1.000000"/>
	<path id="Vector 4" d="M39.87 91.6C39.87 91.6 42.83 92.52 44.2 92.18C45.6 91.83 47.22 89.68 47.22 89.68C47.22 89.68 46.01 94.29 46.62 92.95C47.22 91.6 48.75 90.45 48.75 90.45C48.75 90.45 49.55 89.87 50.16 90.45C50.76 91.02 50.21 93.91 50.96 92.56C51.72 91.22 51.65 90.83 53.27 90.25C54.9 89.68 53.88 92.95 55.69 92.95C57.14 93.32 58.1 93.24 59.23 92.56C60.08 91.91 60.62 91.43 61.67 90.45M73.64 91.22C73.64 91.22 71.62 93.91 68.19 93.91L66.98 93.91L65.17 93.91L62.68 93.33C61.47 93.08 61.67 91.6 61.67 90.45C61.95 89.22 64.68 87.5 65.68 88.71C66.32 89.48 65.93 90.28 65.17 90.45C64.13 91.12 61.67 90.45 61.67 90.45" stroke="#FDFAF0" stroke-opacity="1.000000" stroke-width="1.000000"/>
	<path id="Vector 5" d="M79.02 90.06L80.82 88.43L81.82 87.56M80.82 88.43C81.92 89.62 82.7 89.22 83.14 90.25C83.41 90.88 83.4 92.22 83.31 91.99C83.31 91.99 81.35 93.43 81.35 92.65L84.98 92.56C86.59 92.56 87.36 90.9 88.18 90.06C89.09 88.82 92.09 87.85 92.52 90.06M83.31 91.99C83.33 92.31 83.18 92.36 82.87 92.56C82.56 92.77 82.18 92.68 81.86 92.77C81.55 92.85 81.2 92.87 80.45 92.56C79.03 91.99 79.73 91.79 79.73 91.79C79.73 91.79 80.23 92.47 81.86 92.77M88.18 90.06C87.67 91.72 87.6 91.94 88.2 92.77C89.52 94.56 94.16 92.77 94.16 92.77L98.98 90.64M98.98 90.64L100.69 90.83L102.3 90.83C103.51 90.8 104.51 90.25 104.7 89.29C104.9 88.33 103.57 87.88 102.88 88.04C101.71 88.32 99.66 88.81 98.98 90.64C99.22 92.65 100.24 93.25 100.51 93.33C100.51 93.33 102.17 94.45 106.06 92.77C109.95 91.08 111.27 90.06 111.27 90.06C111.27 90.06 109.66 95.45 111.3 92.56C112.93 89.68 112.96 88.81 114.3 90.06C115.64 91.31 115.84 92.13 117.34 92.56C118.4 92.87 119.11 92.85 120.17 92.56C121.73 92.14 123.37 90.06 123.37 90.06M123.37 90.06C123.37 90.06 126.74 83.13 126.12 81.98C125.51 80.82 124.51 81.4 124.51 81.4C123.55 82.25 123.34 83.69 123.34 86.21M123.34 86.21L123.37 90.06C123.25 91.43 124.31 92.25 125.61 92.77C126.63 93.17 127.33 93.06 128.43 92.77C129.53 92.47 133.61 88.81 133.61 88.81L135.24 87.56M133.61 88.81C133.61 88.81 135.38 89.87 135.88 90.64C136.38 91.41 135.29 92.56 135.29 92.56M141.52 90.06C140.73 90.56 138.91 91.41 138.91 91.41L135.89 92.56L135.29 92.56C134.68 92.77 133.64 92.56 133.64 92.56L132.25 91.41C133.35 92.31 135.22 92.94 135.29 92.56M129.99 86.21L123.34 86.21L118.7 86.21" stroke="#FDFAF0" stroke-opacity="1.000000" stroke-width="1.000000"/>
	<path id="Vector 6" d="M98.11 29.41L112.34 43.42M112.34 29.41L118.71 39.18" stroke="#FDFAF0" stroke-opacity="1.000000" stroke-width="1.000000"/>
	<path id="Vector 7" d="M117.86 15.82L125.5 34.29" stroke="#FDFAF0" stroke-opacity="1.000000" stroke-width="1.000000"/>
	<path id="Vector 8" d="M131.45 22.61L132.94 32.59" stroke="#FDFAF0" stroke-opacity="1.000000" stroke-width="1.000000"/>
	<path id="Vector 9" d="M140.37 12L140.37 32.81" stroke="#FDFAF0" stroke-opacity="1.000000" stroke-width="1.000000"/>
	<path id="Vector 10" d="M150.14 22.19L148.01 32.81" stroke="#FDFAF0" stroke-opacity="1.000000" stroke-width="1.000000"/>
	<path id="Vector 11" d="M163.3 16.67L155.87 34.51" stroke="#FDFAF0" stroke-opacity="1.000000" stroke-width="1.000000"/>
	<path id="Vector 12" d="M168.4 30.26L162.88 38.33" stroke="#FDFAF0" stroke-opacity="1.000000" stroke-width="1.000000"/>
	<path id="Vector 13" d="M182.42 28.98L168.61 43" stroke="#FDFAF0" stroke-opacity="1.000000" stroke-width="1.000000"/>
	<path id="Vector 14" d="M181.14 43.64L172.86 48.95" stroke="#FDFAF0" stroke-opacity="1.000000" stroke-width="1.000000"/>
	<path id="Vector 15" d="M195.16 49.16L176.89 56.38" stroke="#FDFAF0" stroke-opacity="1.000000" stroke-width="1.000000"/>
	<path id="Vector 16" d="M189.21 62.11L179.44 64.24" stroke="#FDFAF0" stroke-opacity="1.000000" stroke-width="1.000000"/>
	<path id="Vector 17" d="M199.19 71.03L180.08 71.03" stroke="#FDFAF0" stroke-opacity="1.000000" stroke-width="1.000000"/>
	<path id="Vector 18" d="M188.57 80.8L179.23 78.89" stroke="#FDFAF0" stroke-opacity="1.000000" stroke-width="1.000000"/>
	<path id="Vector 19" d="M194.31 94.82L176.89 86.96" stroke="#FDFAF0" stroke-opacity="1.000000" stroke-width="1.000000"/>
	<path id="Vector 20" d="M180.93 99.28L172.86 93.75" stroke="#FDFAF0" stroke-opacity="1.000000" stroke-width="1.000000"/>
	<path id="Vector 21" d="M182.2 113.08L168.19 99.49" stroke="#FDFAF0" stroke-opacity="1.000000" stroke-width="1.000000"/>
	<path id="Vector 22" d="M167.98 112.23L162.45 104.37" stroke="#FDFAF0" stroke-opacity="1.000000" stroke-width="1.000000"/>
	<path id="Vector 23" d="M162.24 126.25L155.66 108.41" stroke="#FDFAF0" stroke-opacity="1.000000" stroke-width="1.000000"/>
	<path id="Vector 24" d="M149.07 119.66L147.38 110.32" stroke="#FDFAF0" stroke-opacity="1.000000" stroke-width="1.000000"/>
	<path id="Vector 25" d="M140.37 130.28L140.37 111.17" stroke="#FDFAF0" stroke-opacity="1.000000" stroke-width="1.000000"/>
	<path id="Vector 26" d="M130.17 119.66L131.87 110.11" stroke="#FDFAF0" stroke-opacity="1.000000" stroke-width="1.000000"/>
	<path id="Vector 27" d="M116.8 125.19L124.44 107.98" stroke="#FDFAF0" stroke-opacity="1.000000" stroke-width="1.000000"/>
	<path id="Vector 28" d="M111.91 112.02L117.65 103.74" stroke="#FDFAF0" stroke-opacity="1.000000" stroke-width="1.000000"/>
	<path id="Vector 29" d="M98.32 113.08L111.91 99.06" stroke="#FDFAF0" stroke-opacity="1.000000" stroke-width="1.000000"/>
</svg>
