<svg width="192.000000" height="110.000000" viewBox="0 0 192 110" fill="none" xmlns="http://www.w3.org/2000/svg" xmlns:xlink="http://www.w3.org/1999/xlink">
	<desc>
			Created with Pixso.
	</desc>
	<defs/>
	<path id="Enchantica" d="M69.62 56.2L69.62 57L74.1 57L74.1 55.94Q73.65 55.96 73.18 55.99Q72.72 56.01 72.24 56.03Q72.41 55.63 72.53 55.3Q72.67 54.96 72.83 54.38L73.68 51.81L79.92 51.67L80.76 53.92Q80.93 54.35 81 54.89Q81.04 55.24 80.93 55.53Q80.87 55.67 80.78 55.8Q80.49 56.18 79.58 56.2L79.58 57L85.07 57L85.07 55.94Q84.67 55.96 84.26 55.99Q83.85 56.01 83.44 56.03Q83.49 55.48 83.25 54.69Q83.01 53.9 82.82 53.4L77.47 39.74L76.89 39.74L71.95 53.2Q71.61 54.09 71.36 54.76Q71.1 55.44 70.72 55.82Q70.7 55.85 70.67 55.87Q70.29 56.2 69.62 56.2ZM142.65 56.2L142.65 57L147.14 57L147.14 55.94Q146.69 55.96 146.22 55.99Q145.75 56.01 145.27 56.03Q145.44 55.63 145.57 55.3Q145.7 54.96 145.87 54.38L146.71 51.81L152.95 51.67L153.79 53.92Q153.96 54.35 154.03 54.89Q154.08 55.24 153.96 55.53Q153.91 55.67 153.81 55.8Q153.52 56.18 152.61 56.2L152.61 57L158.11 57L158.11 55.94Q157.7 55.96 157.29 55.99Q156.88 56.01 156.48 56.03Q156.52 55.48 156.28 54.69Q156.04 53.9 155.85 53.4L150.5 39.74L149.93 39.74L144.98 53.2Q144.64 54.09 144.39 54.76Q144.14 55.44 143.75 55.82Q143.73 55.85 143.7 55.87Q143.33 56.2 142.65 56.2ZM47.51 42.27Q48.64 43.49 48.86 45.55L49.72 45.55L49.72 39.98L48.43 39.98L48.55 41.27Q47.44 40.53 46.24 40.17Q45.04 39.81 43.7 39.81Q41.61 39.81 40.04 40.58Q38.84 41.16 37.96 42.05Q37.68 42.33 37.44 42.65Q37.1 43.06 36.83 43.51Q36.24 44.46 35.88 45.55Q35.67 46.23 35.54 46.92Q35.37 47.87 35.37 48.86Q35.37 50.66 35.95 52.21Q36.4 53.37 37.12 54.31Q37.36 54.63 37.64 54.92Q38.02 55.33 38.45 55.67Q39.26 56.31 40.23 56.73Q41.73 57.38 43.53 57.38Q44.52 57.38 45.7 57.1Q46.89 56.83 48.09 56.06Q49.29 55.29 50.32 53.88L49.7 53.37Q49.26 53.98 48.71 54.46Q48.05 55.04 47.23 55.42Q45.94 56.03 44.61 56.12Q44.38 56.13 44.16 56.13Q43.18 56.13 42.29 55.84Q41.57 55.6 40.91 55.17Q40.72 55.04 40.53 54.9Q39.34 53.98 38.59 52.48Q37.72 50.75 37.72 48.5Q37.72 46.72 38.2 45.31Q38.68 43.89 39.52 42.89Q40.21 42.06 41.08 41.55Q41.27 41.44 41.47 41.34Q41.92 41.12 42.38 40.99Q43.1 40.79 43.86 40.79Q45.42 40.79 46.56 41.49Q46.95 41.72 47.29 42.04Q47.4 42.15 47.51 42.27ZM139.5 42.27Q140.63 43.49 140.85 45.55L141.72 45.55L141.72 39.98L140.42 39.98L140.54 41.27Q139.44 40.53 138.24 40.17Q137.03 39.81 135.69 39.81Q133.6 39.81 132.03 40.58Q130.84 41.16 129.95 42.05Q129.68 42.33 129.43 42.65Q129.1 43.06 128.82 43.51Q128.23 44.46 127.88 45.55Q127.66 46.23 127.53 46.92Q127.36 47.87 127.36 48.86Q127.36 50.66 127.95 52.21Q128.39 53.37 129.11 54.31Q129.36 54.63 129.63 54.92Q130.01 55.33 130.45 55.67Q131.25 56.31 132.22 56.73Q133.72 57.38 135.52 57.38Q136.51 57.38 137.69 57.1Q138.88 56.83 140.08 56.06Q141.28 55.29 142.31 53.88L141.69 53.37Q141.26 53.98 140.71 54.46Q140.05 55.04 139.22 55.42Q137.93 56.03 136.6 56.12Q136.38 56.13 136.15 56.13Q135.17 56.13 134.28 55.84Q133.56 55.6 132.9 55.17Q132.71 55.04 132.52 54.9Q131.33 53.98 130.58 52.48Q129.72 50.75 129.72 48.5Q129.72 46.72 130.2 45.31Q130.68 43.89 131.52 42.89Q132.2 42.06 133.07 41.55Q133.26 41.44 133.47 41.34Q133.91 41.12 134.37 40.99Q135.09 40.79 135.86 40.79Q137.42 40.79 138.55 41.49Q138.94 41.72 139.28 42.04Q139.39 42.15 139.5 42.27ZM10.55 49.27Q10.84 49.72 10.84 50.78L11.64 50.78L11.64 45.74L10.58 45.74L10.75 47.8L6.23 47.78L6.23 43.94Q6.23 42.96 6.32 42.35Q6.4 41.79 6.71 41.48Q6.75 41.45 6.78 41.42Q7.17 41.1 8.06 41.08L10.12 41.03Q11.03 41.01 11.76 41.26Q11.99 41.34 12.18 41.46Q12.63 41.74 12.93 42.25Q13.36 42.98 13.36 44.4L14.16 44.4L14.03 40.2L2.49 40.2L2.49 41.25Q2.92 41.23 3.35 41.2L4.22 41.16Q4.19 41.51 4.17 41.96Q4.15 42.41 4.15 42.89L4.15 53.25Q4.15 54.09 4.11 54.75Q4.08 55.41 3.74 55.79Q3.4 56.16 2.49 56.2L2.49 57L14.88 57L15.02 52.31L14.2 52.31Q14.2 53.73 13.77 54.55Q13.46 55.13 12.99 55.46Q12.79 55.59 12.57 55.69Q11.81 56.01 10.75 56.03L6.16 56.1Q6.21 55.79 6.22 55.34Q6.23 54.89 6.23 54.24L6.23 48.74L7.99 48.67Q9.02 48.62 9.64 48.72Q10.09 48.78 10.37 49.04Q10.47 49.14 10.55 49.27ZM20.97 44.51L30.55 57.38L31.7 57.38L31.75 43.94Q31.75 43.07 31.77 42.43Q31.8 41.78 32.13 41.4Q32.13 41.4 32.13 41.4Q32.46 41.01 33.35 40.99L33.35 40.2L28.94 40.2L28.94 41.25L29.8 41.2Q30.24 41.18 30.67 41.16Q30.64 41.51 30.62 41.96Q30.6 42.41 30.6 42.89L30.57 53.88L30.55 53.88Q30.24 53.47 29.93 53.06Q29.63 52.65 29.32 52.24L20.32 40.2L17.46 40.2L17.46 41.25Q17.87 41.23 18.28 41.2Q18.69 41.18 19.08 41.16L19.08 42.76L19.05 54.31Q19.05 54.67 18.95 55.11Q18.92 55.29 18.84 55.45Q18.73 55.68 18.53 55.88Q18.21 56.2 17.46 56.2L17.46 57L21.86 57L21.86 55.94L20.99 55.99Q20.56 56.01 20.13 56.03Q20.18 55.46 20.18 54.86L20.18 53.66L20.11 43.39L20.13 43.39Q20.35 43.68 20.55 43.95Q20.76 44.23 20.97 44.51ZM52.36 56.2L52.36 57L57.76 57L57.76 55.94L56.9 55.99Q56.47 56.01 56.04 56.03Q56.08 55.72 56.09 55.25Q56.11 54.79 56.11 54.14L56.11 48.98L64.7 48.89L64.7 53.25Q64.7 54.09 64.66 54.75Q64.62 55.41 64.29 55.79Q63.96 56.16 63.04 56.2L63.04 57L68.45 57L68.45 55.94L67.58 55.99Q67.14 56.01 66.72 56.03Q66.76 55.72 66.78 55.25Q66.79 54.79 66.79 54.14L66.79 43.94Q66.79 43.07 66.82 42.43Q66.86 41.8 67.18 41.42Q67.19 41.41 67.2 41.4Q67.55 41.01 68.45 40.99L68.45 40.2L63.04 40.2L63.04 41.25Q63.48 41.23 63.9 41.2L64.77 41.16Q64.75 41.51 64.72 41.96Q64.7 42.41 64.7 42.89L64.7 47.92L56.11 47.92L56.11 43.94Q56.11 43.07 56.14 42.43Q56.18 41.79 56.52 41.41Q56.52 41.4 56.53 41.4Q56.87 41.01 57.76 40.99L57.76 40.2L52.36 40.2L52.36 41.25Q52.79 41.23 53.22 41.2L54.09 41.16Q54.07 41.51 54.04 41.96Q54.02 42.41 54.02 42.89L54.02 53.25Q54.02 54.09 53.98 54.75Q53.95 55.41 53.61 55.79Q53.28 56.16 52.36 56.2ZM89.66 44.51L99.24 57.38L100.39 57.38L100.44 43.94Q100.44 43.07 100.46 42.43Q100.48 41.78 100.81 41.4Q100.82 41.4 100.82 41.4Q101.15 41.01 102.04 40.99L102.04 40.2L97.62 40.2L97.62 41.25L98.49 41.2Q98.93 41.18 99.35 41.16Q99.33 41.51 99.31 41.96Q99.28 42.41 99.28 42.89L99.26 53.88L99.24 53.88Q98.93 53.47 98.62 53.06Q98.32 52.65 98.01 52.24L89.01 40.2L86.15 40.2L86.15 41.25Q86.56 41.23 86.97 41.2Q87.38 41.18 87.76 41.16L87.76 42.76L87.74 54.31Q87.74 54.67 87.64 55.11Q87.6 55.29 87.53 55.45Q87.42 55.68 87.22 55.88Q86.9 56.2 86.15 56.2L86.15 57L90.55 57L90.55 55.94L89.68 55.99Q89.25 56.01 88.82 56.03Q88.87 55.46 88.87 54.86L88.87 53.66L88.79 43.39L88.82 43.39Q89.04 43.68 89.24 43.95Q89.45 44.23 89.66 44.51ZM116.68 42.91Q116.94 43.84 116.97 45.26L117.88 45.26L117.74 40.2L103.75 40.2L103.6 45.26L104.49 45.26Q104.49 43.13 105.11 42.12Q105.28 41.85 105.5 41.66Q106.14 41.1 107.25 41.1L109.73 41.08L109.7 53.25Q109.7 54.07 109.66 54.73Q109.63 55.39 109.3 55.78Q108.98 56.16 108.07 56.2L108.07 57L113.71 57L113.71 55.94Q113.21 55.96 112.71 55.99Q112.22 56.01 111.72 56.03Q111.76 55.72 111.78 55.25Q111.79 54.79 111.79 54.14L111.81 41.06L113.85 41.06Q115.1 41.03 115.76 41.5Q115.83 41.56 115.9 41.62Q116.45 42.08 116.68 42.91ZM123.92 41.4Q124.27 41.01 125.16 40.99L125.16 40.2L119.75 40.2L119.75 41.25Q120.19 41.23 120.62 41.2L121.48 41.16Q121.46 41.51 121.44 41.96Q121.41 42.41 121.41 42.89L121.41 53.25Q121.41 54.09 121.38 54.75Q121.34 55.41 121 55.79Q120.67 56.16 119.75 56.2L119.75 57L125.16 57L125.16 55.94L124.29 55.99Q123.86 56.01 123.43 56.03Q123.47 55.72 123.49 55.25Q123.5 54.79 123.5 54.14L123.5 43.94Q123.5 43.07 123.53 42.43Q123.57 41.79 123.91 41.41Q123.91 41.4 123.92 41.4ZM79.58 50.78L74.03 50.78L75.74 45.96Q76 45.26 76.26 44.59Q76.51 43.92 76.75 43.24L76.79 43.24Q77.06 43.99 77.33 44.72Q77.61 45.45 77.87 46.2L79.58 50.78ZM152.61 50.78L147.07 50.78L148.77 45.96Q149.03 45.26 149.29 44.59Q149.54 43.92 149.78 43.24L149.83 43.24Q150.09 43.99 150.37 44.72Q150.64 45.45 150.9 46.2L152.61 50.78Z" fill="#020202" fill-opacity="1.000000" fill-rule="evenodd"/>
	<path id="Vector 1" d="M36.65 71.37L31 71.68C29.61 71.76 17.72 73.39 19.11 70.98C20.34 69.68 26.28 68.39 27.98 69.06M27.98 69.06C29.37 69.12 30.81 70.37 31 71.68M36.04 60.97L31.61 76.18L31 71.68M25.56 76.18C25.56 76.18 27.03 71.84 27.98 69.06C28.69 66.13 29.79 61.55 29.79 61.55" stroke="#020202" stroke-opacity="1.000000" stroke-width="1.000000"/>
	<path id="Vector 2" d="M36.94 76.18C37.26 76.78 37.74 77.16 38.44 77.14C39.31 77.12 40.14 76.94 39.96 75.6C39.85 74.69 39.5 74.05 38.96 73.79C38.7 73.67 38.4 73.62 38.06 73.68C36.96 73.84 36.43 75.23 36.94 76.18ZM38.96 73.79L39.96 75.6" stroke="#020202" stroke-opacity="1.000000" stroke-width="1.000000"/>
	<path id="Vector 4" d="M39.87 75.6C39.87 75.6 42.83 76.52 44.2 76.18C45.6 75.83 47.22 73.68 47.22 73.68C47.22 73.68 46.01 78.29 46.62 76.95C47.22 75.6 48.75 74.45 48.75 74.45C48.75 74.45 49.55 73.87 50.16 74.45C50.76 75.02 50.21 77.91 50.96 76.56C51.72 75.22 51.65 74.83 53.27 74.25C54.9 73.68 53.88 76.95 55.69 76.95C57.14 77.32 58.1 77.24 59.23 76.56C60.08 75.91 60.62 75.43 61.67 74.45M73.64 75.22C73.64 75.22 71.62 77.91 68.19 77.91L66.98 77.91L65.17 77.91L62.68 77.33C61.47 77.08 61.67 75.6 61.67 74.45C61.95 73.22 64.68 71.5 65.68 72.71C66.32 73.48 65.93 74.28 65.17 74.45C64.13 75.12 61.67 74.45 61.67 74.45" stroke="#020202" stroke-opacity="1.000000" stroke-width="1.000000"/>
	<path id="Vector 5" d="M79.02 74.06L80.82 72.43L81.82 71.56M80.82 72.43C81.92 73.62 82.7 73.22 83.14 74.25C83.41 74.88 83.4 76.22 83.31 75.99C83.31 75.99 81.35 77.43 81.35 76.65L84.98 76.56C86.59 76.56 87.36 74.9 88.18 74.06C89.09 72.82 92.09 71.85 92.52 74.06M83.31 75.99C83.33 76.31 83.18 76.36 82.87 76.56C82.56 76.77 82.18 76.68 81.86 76.77C81.55 76.85 81.2 76.87 80.45 76.56C79.03 75.99 79.73 75.79 79.73 75.79C79.73 75.79 80.23 76.47 81.86 76.77M88.18 74.06C87.67 75.72 87.6 75.94 88.2 76.77C89.52 78.56 94.16 76.77 94.16 76.77L98.98 74.64M98.98 74.64L100.69 74.83L102.3 74.83C103.51 74.8 104.51 74.25 104.7 73.29C104.9 72.33 103.57 71.88 102.88 72.04C101.71 72.32 99.66 72.81 98.98 74.64C99.22 76.65 100.24 77.25 100.51 77.33C100.51 77.33 102.17 78.45 106.06 76.77C109.95 75.08 111.27 74.06 111.27 74.06C111.27 74.06 109.66 79.45 111.3 76.56C112.93 73.68 112.96 72.81 114.3 74.06C115.64 75.31 115.84 76.13 117.34 76.56C118.4 76.87 119.11 76.85 120.17 76.56C121.73 76.14 123.37 74.06 123.37 74.06M123.37 74.06C123.37 74.06 126.74 67.13 126.12 65.98C125.51 64.82 124.51 65.4 124.51 65.4C123.55 66.25 123.34 67.69 123.34 70.21M123.34 70.21L123.37 74.06C123.25 75.43 124.31 76.25 125.61 76.77C126.63 77.17 127.33 77.06 128.43 76.77C129.53 76.47 133.61 72.81 133.61 72.81L135.24 71.56M133.61 72.81C133.61 72.81 135.38 73.87 135.88 74.64C136.38 75.41 135.29 76.56 135.29 76.56M141.52 74.06C140.73 74.56 138.91 75.41 138.91 75.41L135.89 76.56L135.29 76.56C134.68 76.77 133.64 76.56 133.64 76.56L132.25 75.41C133.35 76.31 135.22 76.94 135.29 76.56M129.99 70.21L123.34 70.21L118.7 70.21" stroke="#020202" stroke-opacity="1.000000" stroke-width="1.000000"/>
	<path id="Vector 6" d="M97 21.72L109.66 33.57M109.66 21.72L115.34 29.97" stroke="#020202" stroke-opacity="1.000000" stroke-width="1.000000"/>
	<path id="Vector 7" d="M114.58 10.23L121.39 25.85" stroke="#020202" stroke-opacity="1.000000" stroke-width="1.000000"/>
	<path id="Vector 8" d="M126.68 15.97L128 24.41" stroke="#020202" stroke-opacity="1.000000" stroke-width="1.000000"/>
	<path id="Vector 9" d="M134.62 7L134.62 24.59" stroke="#020202" stroke-opacity="1.000000" stroke-width="1.000000"/>
	<path id="Vector 10" d="M143.32 15.61L141.43 24.59" stroke="#020202" stroke-opacity="1.000000" stroke-width="1.000000"/>
	<path id="Vector 11" d="M155.04 10.94L148.42 26.03" stroke="#020202" stroke-opacity="1.000000" stroke-width="1.000000"/>
	<path id="Vector 12" d="M159.58 22.43L154.66 29.26" stroke="#020202" stroke-opacity="1.000000" stroke-width="1.000000"/>
	<path id="Vector 13" d="M172.06 21.36L159.77 33.21" stroke="#020202" stroke-opacity="1.000000" stroke-width="1.000000"/>
	<path id="Vector 14" d="M170.92 33.75L163.55 38.23" stroke="#020202" stroke-opacity="1.000000" stroke-width="1.000000"/>
	<path id="Vector 15" d="M183.4 38.41L167.14 44.52" stroke="#020202" stroke-opacity="1.000000" stroke-width="1.000000"/>
	<path id="Vector 16" d="M178.11 49.36L169.41 51.16" stroke="#020202" stroke-opacity="1.000000" stroke-width="1.000000"/>
	<path id="Vector 17" d="M187 56.91L169.98 56.91" stroke="#020202" stroke-opacity="1.000000" stroke-width="1.000000"/>
	<path id="Vector 18" d="M177.54 65.16L169.22 63.55" stroke="#020202" stroke-opacity="1.000000" stroke-width="1.000000"/>
	<path id="Vector 19" d="M182.65 77.01L167.14 70.37" stroke="#020202" stroke-opacity="1.000000" stroke-width="1.000000"/>
	<path id="Vector 20" d="M170.74 80.78L163.55 76.12" stroke="#020202" stroke-opacity="1.000000" stroke-width="1.000000"/>
	<path id="Vector 21" d="M171.87 92.45L159.39 80.96" stroke="#020202" stroke-opacity="1.000000" stroke-width="1.000000"/>
	<path id="Vector 22" d="M159.2 91.73L154.28 85.09" stroke="#020202" stroke-opacity="1.000000" stroke-width="1.000000"/>
	<path id="Vector 23" d="M154.1 103.58L148.24 88.5" stroke="#020202" stroke-opacity="1.000000" stroke-width="1.000000"/>
	<path id="Vector 24" d="M142.37 98.02L140.86 90.12" stroke="#020202" stroke-opacity="1.000000" stroke-width="1.000000"/>
	<path id="Vector 25" d="M134.62 107L134.62 90.84" stroke="#020202" stroke-opacity="1.000000" stroke-width="1.000000"/>
	<path id="Vector 26" d="M125.55 98.02L127.06 89.94" stroke="#020202" stroke-opacity="1.000000" stroke-width="1.000000"/>
	<path id="Vector 27" d="M113.63 102.69L120.44 88.14" stroke="#020202" stroke-opacity="1.000000" stroke-width="1.000000"/>
	<path id="Vector 28" d="M109.29 91.55L114.39 84.55" stroke="#020202" stroke-opacity="1.000000" stroke-width="1.000000"/>
	<path id="Vector 29" d="M97.18 92.45L109.29 80.6" stroke="#020202" stroke-opacity="1.000000" stroke-width="1.000000"/>
</svg>
